<svg width="705" height="714" viewBox="0 0 705 714" fill="none" xmlns="http://www.w3.org/2000/svg">
<path d="M447.378 151.83L448.002 153.23L449.516 152.992C477.21 148.626 497.125 146.865 513.702 150.113C530.139 153.334 543.465 161.521 557.852 177.51C571.821 193.035 579.327 207.16 581.426 223.401C583.534 239.718 580.221 258.418 572.029 283.162L571.528 284.676L572.893 285.501C595.719 299.313 611.114 310.598 620.601 323.621C629.978 336.492 633.708 351.249 632.726 372.326C627.229 396.804 620.04 412.971 608.953 425.394C597.819 437.871 582.588 446.762 560.608 456.37L559.153 457.006L559.443 458.567C563.763 481.885 564.756 499.157 561.102 514.966C557.463 530.709 549.164 545.217 534.491 562.9C520.226 574.713 507.755 581.242 492.981 583.669C478.079 586.117 460.643 584.426 436.376 579.408L434.844 579.092L434.168 580.502C423.315 603.125 413.355 617.774 399.919 626.572C386.544 635.33 369.41 638.49 343.733 637.362C321.711 633.272 305.985 627.731 292.442 618.284C278.851 608.805 267.3 595.285 253.82 574.955L253.016 573.744L251.616 574.134C229.662 580.257 213.034 582.303 196.952 578.286C180.904 574.278 165.112 564.16 145.01 545.326C134.466 528.682 128.52 515.074 127.236 499.795C125.942 484.414 129.352 467.103 138.008 443.035L138.554 441.518L137.187 440.663C114.543 426.49 98.8347 414.979 88.8755 401.451C79.0132 388.053 74.6714 372.503 75.212 349.968C78.2099 326.988 84.4835 311.753 95.1514 299.374C105.901 286.9 121.242 277.162 142.765 265.43L144.134 264.684L143.744 263.175C137.101 237.432 134.842 218.801 137.999 202.541C141.14 186.364 149.694 172.275 165.251 155.737C182.347 140.516 196.976 133.712 213.336 132.87C229.853 132.019 248.391 137.222 273.377 146.653L275.098 147.303L275.889 145.641C285.419 125.616 293.701 111.549 305.633 102.039C317.488 92.5916 333.193 87.4588 357.966 85.9199C382.592 87.3771 399.451 91.8569 412.841 101.787C426.284 111.757 436.495 127.413 447.378 151.83Z" fill="white" stroke="#36CAC5" stroke-width="4"/>
<path d="M447.378 151.83L448.002 153.23L449.516 152.992C477.21 148.626 497.125 146.865 513.702 150.113C530.139 153.334 543.465 161.521 557.852 177.51C571.821 193.035 579.327 207.16 581.426 223.401C583.534 239.718 580.221 258.418 572.029 283.162L571.528 284.676L572.893 285.501C595.719 299.313 611.114 310.598 620.601 323.621C629.978 336.492 633.708 351.249 632.726 372.326C627.229 396.804 620.04 412.971 608.953 425.394C597.819 437.871 582.588 446.762 560.608 456.37L559.153 457.006L559.443 458.567C563.763 481.885 564.756 499.157 561.102 514.966C557.463 530.709 549.164 545.217 534.491 562.9C520.226 574.713 507.755 581.242 492.981 583.669C478.079 586.117 460.643 584.426 436.376 579.408L434.844 579.092L434.168 580.502C423.315 603.125 413.355 617.774 399.919 626.572C386.544 635.33 369.41 638.49 343.733 637.362C321.711 633.272 305.985 627.731 292.442 618.284C278.851 608.805 267.3 595.285 253.82 574.955L253.016 573.744L251.616 574.134C229.662 580.257 213.034 582.303 196.952 578.286C180.904 574.278 165.112 564.16 145.01 545.326C134.466 528.682 128.52 515.074 127.236 499.795C125.942 484.414 129.352 467.103 138.008 443.035L138.554 441.518L137.187 440.663C114.543 426.49 98.8347 414.979 88.8755 401.451C79.0132 388.053 74.6714 372.503 75.212 349.968C78.2099 326.988 84.4835 311.753 95.1514 299.374C105.901 286.9 121.242 277.162 142.765 265.43L144.134 264.684L143.744 263.175C137.101 237.432 134.842 218.801 137.999 202.541C141.14 186.364 149.694 172.275 165.251 155.737C182.347 140.516 196.976 133.712 213.336 132.87C229.853 132.019 248.391 137.222 273.377 146.653L275.098 147.303L275.889 145.641C285.419 125.616 293.701 111.549 305.633 102.039C317.488 92.5916 333.193 87.4588 357.966 85.9199C382.592 87.3771 399.451 91.8569 412.841 101.787C426.284 111.757 436.495 127.413 447.378 151.83Z" fill="white" stroke="#22403C" stroke-width="4"/>
<line x1="257.204" y1="158.043" x2="271.948" y2="164.259" stroke="#22403C" stroke-width="4"/>
<line x1="206.623" y1="153.922" x2="222.518" y2="152.093" stroke="#22403C" stroke-width="4"/>
<line x1="232.106" y1="152.026" x2="247.984" y2="153.993" stroke="#22403C" stroke-width="4"/>
<line x1="183.029" y1="167.757" x2="196.355" y2="158.9" stroke="#22403C" stroke-width="4"/>
<line x1="164.341" y1="186.294" x2="175.288" y2="174.626" stroke="#22403C" stroke-width="4"/>
<line x1="153.041" y1="207.109" x2="160.663" y2="193.041" stroke="#22403C" stroke-width="4"/>
<line x1="152.063" y1="215.421" x2="149.483" y2="231.212" stroke="#22403C" stroke-width="4"/>
<line x1="150.235" y1="239.759" x2="153.289" y2="255.465" stroke="#22403C" stroke-width="4"/>
<line x1="155.709" y1="261.748" x2="159.759" y2="277.227" stroke="#22403C" stroke-width="4"/>
<line x1="137.849" y1="286.185" x2="151.782" y2="278.32" stroke="#22403C" stroke-width="4"/>
<line x1="118.485" y1="300.699" x2="130.496" y2="290.128" stroke="#22403C" stroke-width="4"/>
<line x1="101.96" y1="321.817" x2="110.211" y2="308.108" stroke="#22403C" stroke-width="4"/>
<line x1="95.8266" y1="346.686" x2="97.802" y2="330.808" stroke="#22403C" stroke-width="4"/>
<line x1="98.0346" y1="377.205" x2="95.6099" y2="361.389" stroke="#22403C" stroke-width="4"/>
<line x1="100.583" y1="387.401" x2="110.21" y2="400.181" stroke="#22403C" stroke-width="4"/>
<line x1="115.669" y1="408.538" x2="128.364" y2="418.276" stroke="#22403C" stroke-width="4"/>
<line x1="135.819" y1="423.316" x2="149.748" y2="431.19" stroke="#22403C" stroke-width="4"/>
<line x1="149.235" y1="447.862" x2="154.595" y2="432.786" stroke="#22403C" stroke-width="4"/>
<line x1="146.905" y1="459.355" x2="144.653" y2="475.196" stroke="#22403C" stroke-width="4"/>
<line x1="153.052" y1="514.219" x2="161.882" y2="527.561" stroke="#22403C" stroke-width="4"/>
<line x1="243.553" y1="561.897" x2="259.12" y2="558.199" stroke="#22403C" stroke-width="4"/>
<line x1="266.51" y1="560.432" x2="276.26" y2="573.118" stroke="#22403C" stroke-width="4"/>
<line x1="612.138" y1="354.086" x2="611.457" y2="370.072" stroke="#22403C" stroke-width="4"/>
<line x1="602.783" y1="329.998" x2="610.34" y2="344.101" stroke="#22403C" stroke-width="4"/>
<line x1="584.135" y1="310.194" x2="596.115" y2="320.799" stroke="#22403C" stroke-width="4"/>
<line x1="564.303" y1="296.098" x2="577.77" y2="304.739" stroke="#22403C" stroke-width="4"/>
<line x1="554.391" y1="292.963" x2="559.409" y2="277.77" stroke="#22403C" stroke-width="4"/>
<line x1="565.26" y1="251.509" x2="562.268" y2="267.227" stroke="#22403C" stroke-width="4"/>
<line x1="561.003" y1="224.75" x2="564.498" y2="240.364" stroke="#22403C" stroke-width="4"/>
<line x1="531.589" y1="184.903" x2="542.851" y2="196.269" stroke="#22403C" stroke-width="4"/>
<line x1="548.515" y1="202.437" x2="557.249" y2="215.844" stroke="#22403C" stroke-width="4"/>
<line x1="507.405" y1="170.787" x2="521.891" y2="177.58" stroke="#22403C" stroke-width="4"/>
<line x1="479.799" y1="166.994" x2="495.799" y2="166.994" stroke="#22403C" stroke-width="4"/>
<line x1="451.624" y1="168.917" x2="467.52" y2="167.097" stroke="#22403C" stroke-width="4"/>
<line x1="433.735" y1="158.817" x2="439.586" y2="173.709" stroke="#22403C" stroke-width="4"/>
<line x1="419.819" y1="137.305" x2="429.047" y2="150.376" stroke="#22403C" stroke-width="4"/>
<line x1="398.142" y1="119.994" x2="411.614" y2="128.626" stroke="#22403C" stroke-width="4"/>
<line x1="374.489" y1="112.178" x2="390.045" y2="115.921" stroke="#22403C" stroke-width="4"/>
<line x1="347.799" y1="109.994" x2="363.799" y2="109.994" stroke="#22403C" stroke-width="4"/>
<line x1="320.553" y1="115.059" x2="336.044" y2="111.056" stroke="#22403C" stroke-width="4"/>
<line x1="296.442" y1="131.718" x2="308.538" y2="121.246" stroke="#22403C" stroke-width="4"/>
<line x1="282.091" y1="156.945" x2="290.036" y2="143.057" stroke="#22403C" stroke-width="4"/>
<line x1="190.407" y1="552.785" x2="204.891" y2="559.582" stroke="#22403C" stroke-width="4"/>
<line x1="145.494" y1="484.777" x2="148.053" y2="500.571" stroke="#22403C" stroke-width="4"/>
<line x1="168.082" y1="535.23" x2="180.144" y2="545.743" stroke="#22403C" stroke-width="4"/>
<line x1="215.799" y1="562.994" x2="231.799" y2="562.994" stroke="#22403C" stroke-width="4"/>
<line x1="281.266" y1="581.105" x2="293.04" y2="591.939" stroke="#22403C" stroke-width="4"/>
<line x1="300.637" y1="598.514" x2="314.815" y2="605.929" stroke="#22403C" stroke-width="4"/>
<line x1="325.545" y1="610.073" x2="341.045" y2="614.04" stroke="#22403C" stroke-width="4"/>
<line x1="351.799" y1="614.994" x2="367.799" y2="614.994" stroke="#22403C" stroke-width="4"/>
<line x1="379.652" y1="614.267" x2="394.389" y2="608.037" stroke="#22403C" stroke-width="4"/>
<line x1="403.62" y1="603.051" x2="415.224" y2="592.036" stroke="#22403C" stroke-width="4"/>
<line x1="420.919" y1="582.776" x2="429.267" y2="569.126" stroke="#22403C" stroke-width="4"/>
<line x1="432.575" y1="561.017" x2="448.045" y2="565.104" stroke="#22403C" stroke-width="4"/>
<line x1="459.859" y1="567.768" x2="475.853" y2="568.222" stroke="#22403C" stroke-width="4"/>
<line x1="487.558" y1="566.272" x2="502.94" y2="561.87" stroke="#22403C" stroke-width="4"/>
<line x1="512.431" y1="557.697" x2="524.558" y2="547.26" stroke="#22403C" stroke-width="4"/>
<line x1="532.028" y1="538.885" x2="540.118" y2="525.081" stroke="#22403C" stroke-width="4"/>
<line x1="544.628" y1="515.143" x2="548.93" y2="499.733" stroke="#22403C" stroke-width="4"/>
<line x1="549.21" y1="474.869" x2="550.378" y2="490.827" stroke="#22403C" stroke-width="4"/>
<line x1="545.815" y1="448.811" x2="547.754" y2="464.693" stroke="#22403C" stroke-width="4"/>
<line x1="553.709" y1="445.59" x2="568.186" y2="438.778" stroke="#22403C" stroke-width="4"/>
<line x1="577.106" y1="432.964" x2="590.189" y2="423.753" stroke="#22403C" stroke-width="4"/>
<line x1="604.092" y1="401.671" x2="597.105" y2="416.064" stroke="#22403C" stroke-width="4"/>
<line x1="607.424" y1="392.984" x2="612.37" y2="377.768" stroke="#22403C" stroke-width="4"/>
<rect x="252.39" y="222.06" width="200" height="259" fill="#DF9870"/>
<rect x="226.39" y="196.06" width="252" height="27" rx="13.5" fill="#22403C"/>
<rect x="226.39" y="481.06" width="252" height="27" rx="13.5" fill="#22403C"/>
<path d="M256.981 406.272C169.89 450.06 96.8903 506.56 112.981 595.272" stroke="#DF9870" stroke-width="4"/>
<path d="M446.744 155.471C476.39 129.06 527.925 310.635 429.212 355.211" stroke="#DF9870" stroke-width="4"/>
<path d="M200.85 502.506L456.082 130.752C458.218 127.642 462.486 126.881 465.565 129.063C468.643 131.245 469.339 135.525 467.111 138.57L200.85 502.506Z" fill="#717171"/>
<ellipse cx="447.099" cy="155.043" rx="2.52488" ry="18.7237" transform="rotate(33.5849 447.099 155.043)" fill="white"/>
<path d="M448.877 153.43C411.977 182.089 567.099 255.922 473.39 388.06" stroke="#DF9870" stroke-width="4"/>
<line x1="461.756" y1="136.681" x2="456.756" y2="147.681" stroke="#717171" stroke-width="3"/>
<line x1="453.611" y1="138.502" x2="446.615" y2="148.354" stroke="#717171" stroke-width="3"/>
<line x1="446.905" y1="154.12" x2="454.905" y2="152.12" stroke="#DF9870" stroke-width="4"/>
<line x1="457.672" y1="146.981" x2="450.545" y2="156.891" stroke="#717171" stroke-width="3"/>
</svg>
