<svg width="2094" height="861" viewBox="0 0 2094 861" fill="none" xmlns="http://www.w3.org/2000/svg">
<rect width="2094" height="861" fill="#F9B756"/>
<rect x="48.5" y="44.5" width="1997" height="772" stroke="white" stroke-width="3"/>
<path d="M556.838 493.272C556.838 485.016 558.95 478.008 563.174 472.248C567.59 466.488 573.542 462.072 581.03 459C581.99 458.616 582.662 458.904 583.046 459.864C583.43 460.824 583.334 461.688 582.758 462.456C579.302 464.376 576.518 467.352 574.406 471.384C572.486 475.416 571.526 480.312 571.526 486.072C571.526 497.784 575.846 507 584.486 513.72C593.126 520.44 604.358 523.8 618.182 523.8C636.23 523.8 649.094 520.248 656.774 513.144C664.646 506.04 668.582 496.728 668.582 485.208C668.582 474.456 666.374 465.048 661.958 456.984C657.542 448.728 652.646 441.048 647.27 433.944C642.086 426.648 637.286 419.352 632.87 412.056C628.454 404.76 626.246 396.504 626.246 387.288C626.246 381.912 627.398 376.728 629.702 371.736C632.198 366.744 635.558 362.328 639.782 358.488C644.198 354.456 649.382 351.288 655.334 348.984C661.286 346.68 667.814 345.528 674.918 345.528C684.71 345.528 692.39 347.64 697.958 351.864C703.718 355.896 706.598 360.792 706.598 366.552C706.598 369.816 705.158 373.848 702.278 378.648C699.59 383.256 696.806 387.288 693.926 390.744C693.158 391.128 692.486 391.032 691.91 390.456C691.334 389.88 691.142 389.208 691.334 388.44C692.294 386.904 693.062 385.08 693.638 382.968C694.406 380.664 694.79 378.168 694.79 375.48C694.79 372.408 694.118 369.528 692.774 366.84C691.43 363.96 689.51 361.56 687.014 359.64C684.518 357.528 681.638 355.896 678.374 354.744C675.11 353.4 671.654 352.728 668.006 352.728C658.406 352.728 651.398 355.032 646.982 359.64C642.566 364.248 640.358 370.2 640.358 377.496C640.358 383.256 641.414 388.728 643.526 393.912C645.83 398.904 648.614 403.992 651.878 409.176C655.142 414.168 658.598 419.256 662.246 424.44C666.086 429.432 669.638 434.712 672.902 440.28C676.166 445.656 678.854 451.416 680.966 457.56C683.27 463.512 684.422 470.04 684.422 477.144C684.422 484.632 682.502 491.64 678.662 498.168C675.014 504.696 669.926 510.456 663.398 515.448C656.87 520.248 649.286 524.088 640.646 526.968C632.006 529.656 622.694 531 612.71 531C594.47 531 580.55 527.448 570.95 520.344C561.542 513.24 556.838 504.216 556.838 493.272ZM758.35 471.672C758.35 482.616 743.854 490.104 714.862 494.136C714.67 496.056 714.478 497.976 714.286 499.896C714.286 501.816 714.286 503.832 714.286 505.944C714.286 510.936 715.438 514.776 717.742 517.464C720.046 520.152 723.694 521.496 728.686 521.496C732.334 521.496 736.078 520.44 739.918 518.328C743.758 516.216 746.83 513.528 749.134 510.264C749.902 509.88 750.478 510.072 750.862 510.84C751.246 511.416 751.342 512.088 751.15 512.856C747.31 517.848 742.414 522.168 736.462 525.816C730.702 529.272 724.462 531 717.742 531C711.022 531 706.126 529.368 703.054 526.104C700.174 522.648 698.734 517.848 698.734 511.704C698.734 505.752 699.982 499.608 702.478 493.272C704.974 486.744 708.142 480.792 711.982 475.416C716.014 470.04 720.526 465.72 725.518 462.456C730.702 459 735.886 457.272 741.07 457.272C746.254 457.272 750.382 458.808 753.454 461.88C756.718 464.76 758.35 468.024 758.35 471.672ZM733.294 464.76C728.878 464.76 725.038 466.872 721.774 471.096C718.702 475.128 716.59 481.464 715.438 490.104C724.654 489.144 731.47 487.416 735.886 484.92C740.302 482.232 742.51 478.968 742.51 475.128C742.51 472.248 741.646 469.848 739.918 467.928C738.19 465.816 735.982 464.76 733.294 464.76ZM863.558 457.272C866.822 457.272 869.606 459.096 871.91 462.744C874.214 466.2 875.366 470.712 875.366 476.28C875.366 483.768 873.638 490.872 870.182 497.592C866.918 504.12 862.79 509.88 857.798 514.872C852.806 519.864 847.43 523.8 841.67 526.68C835.91 529.56 830.63 531 825.83 531C821.222 531 817.766 529.56 815.462 526.68C813.35 523.8 812.294 519.864 812.294 514.872C812.294 510.264 812.678 504.984 813.446 499.032C814.214 493.08 815.078 488.184 816.038 484.344C812.198 489.336 808.166 495.288 803.942 502.2C799.718 509.112 795.494 516.216 791.27 523.512C790.118 525.624 788.294 527.448 785.798 528.984C783.302 530.328 780.902 531 778.598 531C777.062 531 776.486 529.944 776.87 527.832C778.214 523.224 779.27 517.56 780.038 510.84C780.998 503.928 781.478 497.208 781.478 490.68C781.478 484.152 780.998 478.488 780.038 473.688C779.27 468.888 777.734 466.008 775.43 465.048C774.086 464.664 772.55 465.048 770.822 466.2C769.094 467.352 767.75 468.984 766.79 471.096C766.406 471.48 765.926 471.48 765.35 471.096C764.774 470.52 764.582 469.848 764.774 469.08C765.734 466.776 767.942 464.28 771.398 461.592C775.046 458.712 778.886 457.272 782.918 457.272C787.526 457.272 790.79 459.672 792.71 464.472C794.822 469.272 795.878 477.144 795.878 488.088C795.878 493.08 795.686 497.688 795.302 501.912C794.918 505.944 794.438 509.496 793.862 512.568C797.702 505.848 801.35 500.088 804.806 495.288C808.262 490.488 811.526 486.072 814.598 482.04C815.75 480.504 816.71 478.776 817.478 476.856C818.438 474.744 819.398 471.864 820.358 468.216C820.55 467.064 821.414 466.008 822.95 465.048C824.678 463.896 826.406 463.032 828.134 462.456C830.054 461.88 831.686 461.592 833.03 461.592C834.374 461.4 835.046 461.784 835.046 462.744C831.974 469.08 829.67 476.472 828.134 484.92C826.598 493.176 825.83 500.856 825.83 507.96C825.83 512.76 826.982 516.312 829.286 518.616C831.59 520.728 834.374 521.784 837.638 521.784C841.094 521.784 844.358 520.728 847.43 518.616C850.694 516.504 853.574 513.72 856.07 510.264C858.566 506.808 860.582 502.776 862.118 498.168C863.654 493.368 864.422 488.376 864.422 483.192C864.422 475.704 862.982 470.904 860.102 468.792C857.222 466.68 854.15 466.968 850.886 469.656C850.118 469.848 849.542 469.752 849.158 469.368C848.774 468.792 848.678 468.216 848.87 467.64C849.446 466.68 850.406 465.624 851.75 464.472C853.094 463.128 854.438 461.976 855.782 461.016C857.318 459.864 858.758 459 860.102 458.424C861.638 457.656 862.79 457.272 863.558 457.272ZM1247.56 334.872C1256.2 334.872 1260.52 339.096 1260.52 347.544C1260.52 350.232 1260.04 353.4 1259.08 357.048C1258.12 360.504 1257.16 363.288 1256.2 365.4C1255.05 365.784 1254.28 365.4 1253.89 364.248C1255.43 359.832 1254.85 356.088 1252.17 353.016C1249.67 349.752 1244.39 348.12 1236.33 348.12C1227.88 348.12 1220.2 350.136 1213.29 354.168C1206.57 358.2 1200.13 364.728 1193.99 373.752C1187.85 382.776 1181.89 394.584 1176.13 409.176C1170.37 423.768 1164.52 441.624 1158.57 462.744C1161.25 463.512 1163.75 464.28 1166.05 465.048C1168.36 465.624 1170.66 466.2 1172.97 466.776C1173.35 467.16 1173.06 467.736 1172.1 468.504C1171.33 469.272 1170.18 470.04 1168.65 470.808C1167.11 471.576 1165.29 472.248 1163.17 472.824C1161.06 473.4 1159.05 473.592 1157.13 473.4C1156.93 473.4 1156.45 473.208 1155.69 472.824C1155.11 474.936 1154.53 476.952 1153.96 478.872C1153.57 480.6 1153.09 482.52 1152.52 484.632C1146.57 507.096 1147.81 518.328 1156.26 518.328C1163.75 518.328 1170.95 512.952 1177.86 502.2C1178.44 501.624 1179.01 501.528 1179.59 501.912C1180.17 502.296 1180.36 502.968 1180.17 503.928C1178.05 507.192 1175.65 510.456 1172.97 513.72C1170.47 516.792 1167.78 519.672 1164.9 522.36C1162.02 524.856 1159.05 526.968 1155.97 528.696C1152.9 530.232 1150.02 531 1147.33 531C1140.23 531 1135.24 528.12 1132.36 522.36C1129.48 516.6 1129.67 507.288 1132.93 494.424C1134.09 489.816 1135.24 485.4 1136.39 481.176C1137.54 476.76 1138.89 472.44 1140.42 468.216C1129.09 464.952 1116.81 462.072 1103.56 459.576C1090.5 457.08 1077.16 455.256 1063.53 454.104C1052.77 481.368 1039.53 501.048 1023.78 513.144C1008.04 525.048 990.854 531 972.23 531C960.134 531 951.206 528.504 945.446 523.512C939.686 518.328 936.806 511.992 936.806 504.504C936.806 497.208 939.014 490.104 943.43 483.192C948.038 476.28 954.758 470.232 963.59 465.048C972.422 459.672 983.462 455.352 996.71 452.088C1009.96 448.824 1025.22 447.192 1042.5 447.192H1049.99C1050.76 444.504 1051.53 441.816 1052.29 439.128C1053.06 436.44 1053.93 433.56 1054.89 430.488C1057.96 419.16 1061.13 409.656 1064.39 401.976C1067.65 394.104 1070.92 387.576 1074.18 382.392C1077.45 377.208 1080.81 373.08 1084.26 370.008C1087.72 366.936 1091.27 364.44 1094.92 362.52C1089.93 360.792 1083.97 359.256 1077.06 357.912C1070.15 356.376 1062.76 355.608 1054.89 355.608C1045.86 355.608 1038.28 356.856 1032.13 359.352C1026.18 361.848 1021.48 365.304 1018.02 369.72C1014.57 373.944 1012.36 379.032 1011.4 384.984C1010.63 390.744 1010.92 396.888 1012.26 403.416C1012.07 404.376 1011.69 404.952 1011.11 405.144C1010.53 405.336 1009.96 405.048 1009.38 404.28C1007.65 396.216 1007.65 388.632 1009.38 381.528C1011.11 374.232 1014.37 367.896 1019.17 362.52C1024.17 357.144 1030.69 352.92 1038.76 349.848C1047.01 346.776 1056.81 345.24 1068.13 345.24C1076.2 345.24 1083.97 346.2 1091.46 348.12C1098.95 349.848 1105.67 351.96 1111.62 354.456C1112.39 355.608 1112.29 356.664 1111.33 357.624C1110.57 358.584 1108.74 359.64 1105.86 360.792C1102.02 362.328 1098.76 364.44 1096.07 367.128C1093.38 369.816 1090.89 373.464 1088.58 378.072C1086.28 382.68 1083.97 388.344 1081.67 395.064C1079.56 401.784 1077.25 409.944 1074.76 419.544C1073.41 424.536 1071.97 429.432 1070.44 434.232C1069.09 439.032 1067.56 443.64 1065.83 448.056C1078.5 449.016 1091.46 450.456 1104.71 452.376C1118.15 454.296 1131.01 456.6 1143.3 459.288C1149.83 439.704 1157.22 422.232 1165.48 406.872C1173.93 391.32 1182.66 378.264 1191.69 367.704C1200.71 356.952 1209.93 348.792 1219.33 343.224C1228.93 337.656 1238.34 334.872 1247.56 334.872ZM980.294 524.088C988.742 524.088 996.23 522.936 1002.76 520.632C1009.29 518.136 1015.14 514.2 1020.33 508.824C1025.7 503.256 1030.6 495.96 1035.01 486.936C1039.43 477.72 1043.85 466.392 1048.26 452.952C1045.57 452.76 1042.89 452.664 1040.2 452.664C1037.51 452.664 1034.82 452.664 1032.13 452.664C1017.73 452.664 1005.35 453.912 994.982 456.408C984.806 458.712 976.454 461.976 969.926 466.2C963.59 470.232 958.886 475.032 955.814 480.6C952.742 486.168 951.206 492.216 951.206 498.744C951.206 507 953.702 513.336 958.694 517.752C963.878 521.976 971.078 524.088 980.294 524.088ZM1270.4 512.856C1270.78 512.472 1271.26 512.472 1271.84 512.856C1272.41 513.24 1272.6 513.816 1272.41 514.584C1268.96 519.576 1265.12 523.608 1260.89 526.68C1256.67 529.56 1252.64 531 1248.8 531C1244.38 531 1241.5 527.928 1240.16 521.784C1239 515.448 1239.68 507.96 1242.17 499.32C1236.99 507.576 1231.32 514.68 1225.18 520.632C1219.23 526.392 1212.89 529.848 1206.17 531C1201.56 531 1198.01 528.888 1195.52 524.664C1193.02 520.44 1191.77 515.544 1191.77 509.976C1191.77 503.64 1193.31 497.4 1196.38 491.256C1199.45 484.92 1203.48 479.256 1208.48 474.264C1213.66 469.272 1219.32 465.24 1225.47 462.168C1231.8 458.904 1238.14 457.272 1244.48 457.272C1251.2 457.272 1256.48 458.904 1260.32 462.168C1262.24 460.824 1264.64 459.672 1267.52 458.712C1270.59 457.752 1273.28 457.272 1275.58 457.272C1276.35 457.272 1276.73 457.752 1276.73 458.712C1272.32 464.088 1268.48 470.04 1265.21 476.568C1262.14 482.904 1259.74 489.048 1258.01 495C1256.28 500.76 1255.23 505.944 1254.84 510.552C1254.46 515.16 1254.84 518.328 1256 520.056C1256.96 521.208 1258.59 521.592 1260.89 521.208C1263.2 520.632 1266.36 517.848 1270.4 512.856ZM1215.1 520.344C1217.4 520.344 1220.19 518.904 1223.45 516.024C1226.91 513.144 1230.46 509.304 1234.11 504.504C1237.76 499.704 1241.31 494.328 1244.76 488.376C1248.41 482.424 1251.58 476.376 1254.27 470.232C1253.5 467.736 1251.68 465.72 1248.8 464.184C1246.11 462.648 1242.94 461.88 1239.29 461.88C1234.88 461.88 1230.75 463.032 1226.91 465.336C1223.07 467.448 1219.71 470.52 1216.83 474.552C1214.14 478.392 1211.93 483.096 1210.2 488.664C1208.67 494.04 1207.9 499.992 1207.9 506.52C1207.9 510.744 1208.57 514.104 1209.92 516.6C1211.45 519.096 1213.18 520.344 1215.1 520.344ZM1367.49 510.84C1367.88 510.456 1368.36 510.552 1368.93 511.128C1369.51 511.512 1369.7 512.088 1369.51 512.856C1366.05 517.656 1362.02 521.88 1357.41 525.528C1353 529.176 1348.58 531 1344.17 531C1340.9 531 1338.31 529.944 1336.39 527.832C1334.66 525.72 1333.8 522.936 1333.8 519.48C1333.8 512.76 1334.95 505.464 1337.25 497.592C1339.75 489.72 1343.01 481.752 1347.05 473.688C1347.62 472.344 1347.91 470.904 1347.91 469.368C1347.91 467.448 1347.05 466.488 1345.32 466.488C1338.21 466.488 1330.34 471.384 1321.7 481.176C1313.06 490.776 1305.09 506.136 1297.8 527.256C1297.61 527.832 1296.93 528.408 1295.78 528.984C1294.82 529.368 1293.67 529.752 1292.33 530.136C1290.98 530.328 1289.64 530.52 1288.29 530.712C1286.95 530.904 1285.89 531 1285.13 531C1284.17 531 1283.4 530.808 1282.82 530.424C1282.44 530.04 1282.44 529.368 1282.82 528.408C1286.09 520.152 1289.35 511.128 1292.61 501.336C1296.07 491.352 1299.05 481.368 1301.54 471.384C1302.12 469.464 1302.21 468.12 1301.83 467.352C1301.45 466.392 1300.77 465.912 1299.81 465.912C1297.7 465.912 1295.69 466.872 1293.77 468.792C1291.85 470.52 1290.12 472.44 1288.58 474.552C1288.01 474.936 1287.43 474.84 1286.85 474.264C1286.47 473.688 1286.37 473.112 1286.57 472.536C1287.53 471.192 1288.77 469.656 1290.31 467.928C1292.04 466.2 1293.96 464.568 1296.07 463.032C1298.18 461.304 1300.39 459.96 1302.69 459C1305 457.848 1307.3 457.272 1309.61 457.272C1312.87 457.272 1314.98 458.328 1315.94 460.44C1317.09 462.36 1317.38 464.76 1316.81 467.64C1315.85 471.864 1314.79 475.896 1313.64 479.736C1312.68 483.384 1311.43 487.512 1309.89 492.12C1312.2 487.896 1314.98 483.768 1318.25 479.736C1321.7 475.512 1325.45 471.768 1329.48 468.504C1333.7 465.048 1338.21 462.36 1343.01 460.44C1347.81 458.328 1352.9 457.272 1358.28 457.272C1360.58 457.272 1362.31 457.848 1363.46 459C1364.81 460.152 1365.48 461.496 1365.48 463.032C1365.48 465.72 1364.81 468.12 1363.46 470.232C1359.43 477.528 1355.97 485.112 1353.09 492.984C1350.41 500.664 1349.06 507.576 1349.06 513.72C1349.06 518.712 1350.69 521.208 1353.96 521.208C1356.07 521.208 1358.18 520.344 1360.29 518.616C1362.41 516.888 1364.81 514.296 1367.49 510.84ZM1547.86 313.272C1550.74 313.272 1553.04 314.04 1554.77 315.576C1556.69 317.112 1558.04 319.128 1558.8 321.624C1559.57 324.12 1559.76 327 1559.38 330.264C1559 333.336 1558.04 336.408 1556.5 339.48C1556.12 339.864 1555.64 340.056 1555.06 340.056C1554.48 339.864 1554.1 339.384 1553.91 338.616C1554.29 335.736 1553.52 333.624 1551.6 332.28C1549.68 330.744 1547 329.976 1543.54 329.976C1533.17 329.976 1523.19 333.432 1513.59 340.344C1503.99 347.256 1494.87 357.912 1486.23 372.312C1477.78 386.52 1469.91 404.664 1462.61 426.744C1455.51 448.632 1449.08 474.744 1443.32 505.08C1442.36 509.304 1442.26 512.952 1443.03 516.024C1443.8 518.904 1445.24 520.344 1447.35 520.344C1449.46 520.344 1451.48 519.48 1453.4 517.752C1455.32 516.024 1457.04 513.816 1458.58 511.128C1458.96 510.744 1459.44 510.744 1460.02 511.128C1460.79 511.512 1461.08 512.088 1460.88 512.856C1459.92 514.776 1458.48 516.792 1456.56 518.904C1454.84 521.016 1452.82 523.032 1450.52 524.952C1448.4 526.68 1446.1 528.12 1443.6 529.272C1441.3 530.424 1439.19 531 1437.27 531C1433.04 531 1430.07 529.464 1428.34 526.392C1426.61 523.32 1425.94 519.864 1426.32 516.024C1426.71 512.76 1427.19 509.688 1427.76 506.808C1428.34 503.928 1429.01 500.856 1429.78 497.592C1425.94 505.848 1420.56 513.048 1413.65 519.192C1406.74 525.144 1399.92 529.08 1393.2 531C1388.79 531 1385.24 529.368 1382.55 526.104C1379.86 522.84 1378.52 518.616 1378.52 513.432C1378.52 505.944 1379.86 498.84 1382.55 492.12C1385.24 485.208 1388.88 479.16 1393.49 473.976C1398.1 468.792 1403.57 464.664 1409.91 461.592C1416.24 458.52 1423.06 456.984 1430.36 456.984C1434.39 456.984 1437.94 457.656 1441.01 459C1444.47 448.632 1448.6 437.88 1453.4 426.744C1458.2 415.416 1463.48 404.376 1469.24 393.624C1475 382.872 1481.04 372.6 1487.38 362.808C1493.91 353.016 1500.53 344.472 1507.25 337.176C1513.97 329.88 1520.79 324.12 1527.7 319.896C1534.61 315.48 1541.33 313.272 1547.86 313.272ZM1402.42 519.768C1404.53 519.768 1407.03 518.712 1409.91 516.6C1412.79 514.296 1415.76 511.32 1418.84 507.672C1421.91 503.832 1424.79 499.512 1427.48 494.712C1430.16 489.72 1432.47 484.44 1434.39 478.872C1435.16 477.144 1435.83 475.416 1436.4 473.688C1436.98 471.768 1437.46 469.944 1437.84 468.216C1437.08 465.912 1435.54 464.28 1433.24 463.32C1431.12 462.168 1428.72 461.592 1426.04 461.592C1422 461.592 1418.07 462.84 1414.23 465.336C1410.39 467.64 1407.03 470.904 1404.15 475.128C1401.27 479.352 1398.87 484.344 1396.95 490.104C1395.22 495.864 1394.36 502.2 1394.36 509.112C1394.36 512.184 1395.03 514.776 1396.37 516.888C1397.91 518.808 1399.92 519.768 1402.42 519.768ZM1535.3 465.624C1536.07 463.704 1538.18 461.88 1541.63 460.152C1545.09 458.232 1548.16 457.272 1550.85 457.272C1552.58 457.272 1553.25 457.944 1552.87 459.288C1548.64 471.192 1544.42 482.808 1540.19 494.136C1536.16 505.272 1531.94 516.792 1527.52 528.696C1517.92 553.464 1505.92 571.704 1491.52 583.416C1477.31 595.128 1462.15 600.984 1446.02 600.984C1434.88 600.984 1426.15 598.392 1419.81 593.208C1413.47 588.024 1410.31 581.784 1410.31 574.488C1410.31 570.264 1411.75 566.136 1414.63 562.104C1417.51 558.072 1421.44 555.192 1426.43 553.464C1427.2 553.272 1427.78 553.464 1428.16 554.04C1428.55 554.616 1428.55 555.192 1428.16 555.768C1425.09 559.032 1423.55 563.16 1423.55 568.152C1423.55 576.216 1426.05 582.744 1431.04 587.736C1436.03 592.728 1443.23 595.224 1452.64 595.224C1459.36 595.224 1465.51 594.168 1471.07 592.056C1476.64 589.944 1481.83 586.2 1486.63 580.824C1491.62 575.448 1496.42 568.248 1501.03 559.224C1505.63 550.2 1510.34 538.872 1515.14 525.24C1517.44 518.904 1519.46 513.24 1521.19 508.248C1523.11 503.256 1525.03 497.784 1526.95 491.832C1523.3 497.592 1519.55 502.872 1515.71 507.672C1511.87 512.472 1507.94 516.6 1503.91 520.056C1500.07 523.512 1496.32 526.2 1492.67 528.12C1489.03 530.04 1485.67 531 1482.59 531C1478.75 531 1475.97 529.848 1474.24 527.544C1472.51 525.24 1471.65 522.072 1471.65 518.04C1471.65 511.32 1472.99 503.64 1475.68 495C1478.56 486.168 1482.4 477.72 1487.2 469.656C1485.09 471 1483.17 472.248 1481.44 473.4C1479.71 474.552 1478.08 475.896 1476.55 477.432C1475.97 477.816 1475.39 477.72 1474.82 477.144C1474.43 476.376 1474.43 475.704 1474.82 475.128C1476.16 473.784 1477.99 472.344 1480.29 470.808C1482.59 469.08 1485.09 467.448 1487.78 465.912C1490.47 464.376 1493.15 462.84 1495.84 461.304C1498.72 459.768 1501.51 458.424 1504.19 457.272C1506.11 457.272 1506.88 458.136 1506.5 459.864C1503.43 463.704 1500.64 468.024 1498.15 472.824C1495.84 477.432 1493.83 482.136 1492.1 486.936C1490.37 491.544 1489.03 496.152 1488.07 500.76C1487.3 505.368 1486.91 509.496 1486.91 513.144C1486.91 518.52 1488.64 521.208 1492.1 521.208C1495.17 521.208 1498.82 519.288 1503.04 515.448C1507.27 511.608 1511.39 506.904 1515.43 501.336C1519.65 495.576 1523.49 489.528 1526.95 483.192C1530.59 476.664 1533.38 470.808 1535.3 465.624Z" fill="#22403C"/>
</svg>
